<?xml version="1.0" standalone="no"?><svg xmlns="http://www.w3.org/2000/svg" viewBox="0 0 1440 320"><path fill="#a2d9ff" fill-opacity="0.8" d="M0,224L7.1,197.3C14.1,171,28,117,42,90.7C56.5,64,71,64,85,90.7C98.8,117,113,171,127,197.3C141.2,224,155,224,169,229.3C183.5,235,198,245,212,213.3C225.9,181,240,107,254,96C268.2,85,282,139,296,154.7C310.6,171,325,149,339,160C352.9,171,367,213,381,218.7C395.3,224,409,192,424,192C437.6,192,452,224,466,234.7C480,245,494,235,508,208C522.4,181,536,139,551,144C564.7,149,579,203,593,234.7C607.1,267,621,277,635,266.7C649.4,256,664,224,678,218.7C691.8,213,706,235,720,250.7C734.1,267,748,277,762,240C776.5,203,791,117,805,117.3C818.8,117,833,203,847,202.7C861.2,203,875,117,889,117.3C903.5,117,918,203,932,240C945.9,277,960,267,974,234.7C988.2,203,1002,149,1016,133.3C1030.6,117,1045,139,1059,154.7C1072.9,171,1087,181,1101,208C1115.3,235,1129,277,1144,266.7C1157.6,256,1172,192,1186,154.7C1200,117,1214,107,1228,138.7C1242.4,171,1256,245,1271,277.3C1284.7,309,1299,299,1313,277.3C1327.1,256,1341,224,1355,202.7C1369.4,181,1384,171,1398,154.7C1411.8,139,1426,117,1433,106.7L1440,96L1440,320L1432.9,320C1425.9,320,1412,320,1398,320C1383.5,320,1369,320,1355,320C1341.2,320,1327,320,1313,320C1298.8,320,1285,320,1271,320C1256.5,320,1242,320,1228,320C1214.1,320,1200,320,1186,320C1171.8,320,1158,320,1144,320C1129.4,320,1115,320,1101,320C1087.1,320,1073,320,1059,320C1044.7,320,1031,320,1016,320C1002.4,320,988,320,974,320C960,320,946,320,932,320C917.6,320,904,320,889,320C875.3,320,861,320,847,320C832.9,320,819,320,805,320C790.6,320,776,320,762,320C748.2,320,734,320,720,320C705.9,320,692,320,678,320C663.5,320,649,320,635,320C621.2,320,607,320,593,320C578.8,320,565,320,551,320C536.5,320,522,320,508,320C494.1,320,480,320,466,320C451.8,320,438,320,424,320C409.4,320,395,320,381,320C367.1,320,353,320,339,320C324.7,320,311,320,296,320C282.4,320,268,320,254,320C240,320,226,320,212,320C197.6,320,184,320,169,320C155.3,320,141,320,127,320C112.9,320,99,320,85,320C70.6,320,56,320,42,320C28.2,320,14,320,7,320L0,320Z"></path></svg>